<?xml version="1.0" standalone="no"?>
<!DOCTYPE svg PUBLIC "-//W3C//DTD SVG 20010904//EN"
 "http://www.w3.org/TR/2001/REC-SVG-20010904/DTD/svg10.dtd">
<svg version="1.0" xmlns="http://www.w3.org/2000/svg"
 width="3034.000000pt" height="3034.000000pt" viewBox="0 0 3034.000000 3034.000000"
 preserveAspectRatio="xMidYMid meet">
<metadata>
Created by potrace 1.14, written by Peter Selinger 2001-2017
</metadata>
<g transform="translate(0.000000,3034.000000) scale(0.100000,-0.100000)"
fill="#000000" stroke="none">
<path d="M15060 25534 c-25 -2 -121 -8 -215 -14 -575 -37 -1200 -136 -1775
-280 -2447 -613 -4582 -2121 -5989 -4230 -581 -870 -1019 -1812 -1306 -2805
-576 -1994 -530 -4131 132 -6095 971 -2882 3219 -5204 6073 -6273 2202 -825
4648 -858 6880 -92 2099 720 3922 2128 5159 3985 263 395 457 730 661 1145
608 1235 948 2532 1030 3930 13 222 13 909 0 1128 -138 2313 -995 4410 -2515
6152 -191 219 -711 739 -930 930 -1586 1384 -3500 2232 -5560 2464 -400 45
-545 53 -1080 56 -286 1 -540 1 -565 -1z m1945 -2753 c1006 -174 1871 -600
2680 -1321 171 -152 513 -506 689 -712 l160 -187 29 52 c142 250 429 448 772
536 482 122 943 95 1331 -79 l71 -32 -139 -326 c-77 -180 -143 -330 -147 -334
-3 -4 -56 10 -116 31 -266 94 -545 121 -765 76 -189 -40 -283 -115 -283 -229
0 -117 79 -182 248 -206 44 -6 213 -15 375 -20 472 -14 673 -50 880 -156 203
-104 323 -258 387 -499 24 -88 27 -119 27 -260 1 -137 -3 -171 -22 -240 -119
-416 -523 -704 -1122 -800 -137 -21 -371 -36 -475 -30 -101 7 -262 24 -286 31
-15 4 -17 -14 -23 -153 -11 -270 -26 -499 -47 -728 -25 -278 -71 -651 -81
-660 -2 -1 -797 -156 -1768 -344 l-1765 -342 -1934 -475 c-1064 -261 -1936
-476 -1938 -478 -2 -1 31 -103 73 -225 42 -122 75 -223 73 -225 -7 -5 -781
-158 -784 -154 -1 2 -15 83 -31 181 -15 98 -31 182 -34 186 -3 5 -421 -51
-930 -125 -509 -74 -931 -134 -937 -134 -7 0 -26 26 -41 58 l-29 57 65 898 64
898 -32 62 c-283 535 -617 1043 -833 1265 -59 60 -197 162 -219 162 -25 0
-141 96 -239 196 -142 147 -285 320 -509 619 -255 341 -749 1050 -738 1060 2
1 59 -38 128 -87 184 -131 528 -362 578 -387 24 -12 48 -21 54 -19 5 2 -32 47
-85 99 -57 58 -122 138 -165 203 -126 191 -303 559 -474 986 -118 295 -308
816 -290 795 4 -5 31 -39 59 -75 105 -134 431 -437 743 -691 247 -201 697
-535 707 -526 2 3 -38 47 -89 98 -174 174 -333 447 -545 934 -140 323 -372
943 -446 1193 l-16 53 62 -46 c461 -336 1239 -586 2132 -684 219 -25 475 -45
481 -38 19 18 -406 253 -1321 730 -646 336 -824 430 -803 423 271 -86 528
-138 863 -175 319 -36 549 -44 1060 -38 710 8 1152 41 2600 192 1245 130 1598
161 2105 185 334 16 396 17 620 14 176 -2 230 -7 385 -33z m-7819 -5486 c130
-610 237 -1111 238 -1112 1 -1 326 67 721 152 396 84 723 151 726 147 5 -6
146 -655 152 -701 2 -10 -272 -72 -1133 -256 -624 -134 -1136 -242 -1137 -242
0 1 -145 674 -320 1495 -308 1439 -319 1493 -299 1498 12 2 197 42 411 88 384
82 390 83 397 62 4 -12 113 -520 244 -1131z m11924 -1034 c0 -5 -12 -88 -26
-186 -14 -97 -24 -178 -22 -180 2 -2 25 1 52 7 255 54 573 -468 635 -1044 30
-272 -6 -571 -99 -828 -292 -802 -304 -829 -443 -952 -144 -128 -288 -286
-529 -580 -57 -70 -95 -108 -110 -110 -20 -3 -23 -9 -26 -58 -2 -30 18 -426
43 -879 51 -932 51 -924 30 -941 -29 -24 -16 -32 38 -26 66 9 221 -10 307 -36
362 -112 599 -454 577 -833 -22 -363 -258 -652 -623 -761 -107 -32 -305 -44
-406 -25 -180 34 -329 110 -449 230 -123 124 -193 262 -228 450 l-16 84 -95
-108 -95 -109 -83 425 c-46 233 -86 426 -88 428 -5 6 -424 -76 -432 -84 -3 -3
29 -184 71 -402 43 -217 76 -398 73 -400 -2 -3 -181 148 -396 336 -215 188
-397 341 -404 341 -19 0 -396 -77 -401 -82 -5 -5 300 -1566 307 -1574 5 -5
429 74 436 81 2 1 -33 190 -78 420 -45 229 -80 418 -78 420 6 6 561 -482 559
-491 -2 -5 -120 -143 -264 -307 l-261 -299 -191 -113 c-1935 -1147 -3286
-1702 -3955 -1626 -143 17 -245 54 -364 131 -84 55 -103 73 -142 134 -50 78
-371 713 -363 720 2 2 246 51 543 109 296 58 540 107 542 109 3 4 -66 370 -71
376 -1 2 -190 -34 -419 -78 -230 -45 -420 -80 -422 -77 -3 3 -16 57 -28 119
l-22 114 376 73 c206 40 376 74 377 75 3 3 -66 348 -69 352 -2 1 -171 -31
-377 -72 -206 -40 -375 -73 -376 -71 -4 5 -45 221 -42 223 1 1 186 39 411 83
225 44 411 83 414 85 5 6 -64 366 -72 373 -5 5 -1259 -238 -1267 -246 -3 -3
27 -172 67 -376 41 -203 72 -374 71 -379 -2 -5 -15 17 -29 50 -14 32 -106 237
-203 454 -316 707 -740 1675 -1098 2510 l-165 385 -25 350 c-15 192 -24 351
-22 353 3 3 1248 210 1252 207 1 0 -95 -369 -213 -820 -175 -664 -213 -820
-202 -830 7 -6 227 -138 488 -292 l476 -281 617 121 c600 118 617 122 617 144
0 15 -6 23 -17 23 -9 0 -279 -52 -600 -115 -321 -63 -591 -115 -600 -115 -13
0 -900 518 -927 541 -5 4 87 372 205 822 l214 814 81 13 81 12 6 516 c4 284 7
610 7 725 0 114 3 207 8 207 4 0 196 32 427 70 l420 68 15 -21 c8 -11 162
-280 341 -596 239 -423 331 -577 345 -578 20 -3 3012 642 3021 650 3 3 -13
423 -36 933 -22 511 -39 929 -38 931 5 4 3420 791 3440 792 9 1 17 -3 17 -8z
m-3726 -1607 c30 -467 53 -850 51 -852 -6 -6 -2605 -605 -2608 -601 -14 18
-747 1532 -744 1535 5 5 3241 772 3245 769 1 -1 27 -384 56 -851z m-4603 -276
c4 -20 155 -1614 153 -1617 -5 -6 -1835 -273 -1840 -269 -2 3 -123 353 -268
779 -171 502 -260 775 -253 778 13 5 2162 329 2190 330 9 1 17 0 18 -1z m-129
-5557 c42 -11 103 -33 136 -47 l60 -26 -43 -96 c-24 -54 -59 -132 -78 -174
l-36 -78 -66 25 c-147 56 -336 68 -447 29 -115 -39 -133 -151 -33 -195 36 -16
82 -22 203 -29 300 -17 384 -32 498 -86 159 -75 247 -243 230 -441 -7 -91 -36
-167 -91 -242 -198 -269 -761 -355 -1153 -176 -45 21 -82 40 -82 42 0 2 41 78
91 169 53 97 96 163 103 160 166 -74 237 -91 386 -91 145 0 220 18 275 66 46
41 49 96 7 138 -35 36 -99 47 -332 61 -253 15 -376 45 -473 116 -117 85 -182
262 -157 428 35 239 237 405 559 462 112 20 344 12 443 -15z"/>
<path d="M18422 20506 c-210 -45 -386 -87 -390 -92 -10 -10 -637 -3282 -631
-3288 5 -5 868 180 875 187 3 2 27 131 53 286 27 155 51 284 54 287 3 3 262
61 575 128 l569 122 157 -231 c86 -126 161 -236 165 -244 8 -12 82 1 443 78
238 51 441 95 450 99 14 6 -160 260 -942 1377 -615 878 -966 1371 -977 1372
-10 1 -190 -35 -401 -81z m476 -1396 c133 -200 239 -366 237 -369 -6 -6 -639
-140 -643 -136 -4 4 136 848 144 874 3 9 8 11 13 5 5 -5 117 -173 249 -374z"/>
<path d="M15616 19930 c-770 -68 -1358 -562 -1506 -1268 -27 -129 -37 -368
-20 -509 23 -204 102 -459 192 -621 219 -395 594 -677 1027 -772 356 -79 762
-26 1118 145 309 148 547 389 709 717 31 62 45 101 39 107 -24 22 -719 314
-723 303 -2 -6 -25 -47 -52 -92 -125 -209 -257 -320 -460 -386 -77 -26 -98
-28 -230 -28 -138 0 -149 1 -226 31 -98 37 -178 87 -252 156 -265 250 -349
706 -191 1031 126 258 388 409 684 393 160 -9 293 -59 448 -170 l77 -56 79 92
c275 323 441 522 441 532 0 13 -100 94 -202 162 -268 179 -609 263 -952 233z"/>
<path d="M12977 19320 c-225 -48 -410 -90 -411 -91 -2 -2 82 -400 186 -884
180 -835 189 -886 191 -995 2 -176 -40 -290 -142 -390 -173 -169 -511 -213
-702 -92 -99 63 -178 170 -228 308 -20 54 -99 402 -211 927 -99 463 -182 852
-185 865 -3 12 -11 22 -18 22 -6 1 -198 -39 -424 -87 -260 -55 -413 -92 -413
-100 0 -23 380 -1780 399 -1847 53 -180 140 -362 234 -490 316 -428 832 -562
1506 -391 719 182 1087 637 1058 1309 -4 78 -11 170 -17 206 -5 36 -94 460
-197 943 -152 714 -190 877 -202 876 -9 -1 -200 -41 -424 -89z"/>
<path d="M21203 19284 c3 -16 16 -108 27 -204 12 -96 23 -189 26 -207 5 -37
11 -39 179 -79 148 -34 403 -44 548 -20 192 32 323 93 370 174 25 42 26 125 4
169 -54 104 -153 128 -587 143 -260 9 -540 33 -563 47 -6 4 -7 -6 -4 -23z"/>
<path d="M20582 10075 c-121 -27 -213 -99 -269 -212 -31 -64 -37 -87 -41 -160
-3 -49 1 -109 8 -142 29 -130 119 -247 235 -306 56 -28 68 -30 170 -30 99 0
116 3 168 27 81 38 161 117 199 197 54 113 51 273 -8 397 -56 118 -175 210
-303 234 -66 12 -80 12 -159 -5z"/>
<path d="M16911 9749 c-106 -21 -194 -39 -196 -41 -7 -9 -356 -1700 -353
-1711 2 -10 56 -2 232 33 l230 45 28 149 c15 82 29 150 30 151 4 4 573 115
589 115 8 0 50 -56 94 -125 44 -69 87 -125 95 -125 8 0 114 20 235 43 142 28
220 48 220 56 0 6 -218 336 -485 731 -382 568 -489 720 -505 719 -11 -1 -107
-18 -214 -40z m350 -931 c-9 -4 -77 -19 -151 -33 -74 -14 -143 -27 -152 -29
-9 -2 -15 1 -13 8 2 6 20 99 40 206 19 107 38 206 41 219 4 19 26 -10 128
-170 103 -161 121 -195 107 -201z"/>
<path d="M15245 9409 c-33 -5 -200 -37 -371 -72 l-310 -62 152 -778 c84 -429
155 -785 157 -791 4 -10 83 2 325 50 393 76 451 92 577 154 229 112 367 268
437 490 33 107 33 316 0 440 -99 369 -391 582 -792 579 -63 -1 -142 -6 -175
-10z m317 -437 c114 -56 186 -163 209 -311 31 -206 -83 -373 -300 -436 -55
-17 -221 -48 -226 -43 -5 5 -157 780 -153 783 2 2 46 12 98 24 68 14 125 19
200 18 97 -2 111 -5 172 -35z"/>
</g>
</svg>
